<svg version="1.1" id="Layer_1" xmlns="http://www.w3.org/2000/svg" xmlns:xlink="http://www.w3.org/1999/xlink" x="0px" y="0px"
	 width="100%" viewBox="0 0 87 86" enable-background="new 0 0 87 86" xml:space="preserve">
<path fill="#FFC90E" opacity="1.000000" stroke="none" 
	d="
M88.000000,12.000000 
	C88.000000,33.020893 88.000000,54.041790 87.675774,75.653961 
	C84.485443,81.797134 79.587883,84.827065 74.000000,87.000000 
	C53.979103,87.000000 33.958210,87.000000 13.328433,86.665329 
	C8.813034,83.553772 4.906518,80.776886 1.000001,78.000000 
	C1.000000,55.645771 1.000000,33.291542 1.331501,10.366463 
	C5.442002,6.863739 9.221001,3.931870 13.000000,1.000000 
	C33.020893,1.000000 53.041790,1.000000 73.673378,1.335860 
	C80.507622,2.921193 84.253647,7.460812 88.000000,12.000000 
M83.625114,47.009434 
	C83.572334,45.038982 83.519547,43.068527 83.708061,40.175644 
	C83.806015,34.020153 83.971382,27.864830 83.986458,21.709135 
	C84.010277,11.978287 78.278358,6.069421 68.608475,6.022693 
	C51.786964,5.941405 34.964531,5.945819 18.143003,6.024825 
	C10.405039,6.061169 4.080272,12.244335 4.032368,19.891863 
	C3.931173,36.046898 3.925309,52.203575 4.040558,68.358437 
	C4.091366,75.480354 10.261025,81.881393 17.303289,81.941322 
	C35.123184,82.092972 52.945885,82.077713 70.766068,81.943718 
	C76.961594,81.897133 83.496040,76.269402 83.786171,70.278893 
	C84.147156,62.825375 83.627747,55.329216 83.625114,47.009434 
z"/>
<path fill="#FFFFFF" opacity="1.000000" stroke="none" 
	d="
M88.000000,11.517044 
	C84.253647,7.460812 80.507622,2.921193 74.142036,1.335860 
	C78.577919,1.000000 83.155846,1.000000 88.000000,1.000000 
	C88.000000,4.340136 88.000000,7.687112 88.000000,11.517044 
z"/>
<path fill="#FFFFFF" opacity="1.000000" stroke="none" 
	d="
M74.474129,87.000000 
	C79.587883,84.827065 84.485443,81.797134 87.675774,76.122620 
	C88.000000,79.599579 88.000000,83.199165 88.000000,87.000000 
	C83.650711,87.000000 79.299484,87.000000 74.474129,87.000000 
z"/>
<path fill="#FFFFFF" opacity="1.000000" stroke="none" 
	d="
M12.520824,1.000000 
	C9.221001,3.931870 5.442002,6.863739 1.331501,9.897804 
	C1.000000,7.067075 1.000000,4.134151 1.000000,1.000000 
	C4.679128,1.000000 8.360389,1.000000 12.520824,1.000000 
z"/>
<path fill="#FFFFFF" opacity="1.000000" stroke="none" 
	d="
M1.000001,78.491051 
	C4.906518,80.776886 8.813034,83.553772 12.859776,86.665329 
	C9.094069,87.000000 5.188137,87.000000 1.000000,87.000000 
	C1.000000,84.330864 1.000000,81.656479 1.000001,78.491051 
z"/>
<path fill="#B6E61E" opacity="1.000000" stroke="none" 
	d="
M83.488548,47.851471 
	C83.627747,55.329216 84.147156,62.825375 83.786171,70.278893 
	C83.496040,76.269402 76.961594,81.897133 70.766068,81.943718 
	C52.945885,82.077713 35.123184,82.092972 17.303289,81.941322 
	C10.261025,81.881393 4.091366,75.480354 4.040558,68.358437 
	C3.925309,52.203575 3.931173,36.046898 4.032368,19.891863 
	C4.080272,12.244335 10.405039,6.061169 18.143003,6.024825 
	C34.964531,5.945819 51.786964,5.941405 68.608475,6.022693 
	C78.278358,6.069421 84.010277,11.978287 83.986458,21.709135 
	C83.971382,27.864830 83.806015,34.020153 83.411499,40.373108 
	C80.241051,35.947746 75.996040,36.758507 71.512924,37.401051 
	C71.512924,42.284122 71.512924,46.869812 71.512924,51.640945 
	C76.360909,52.359886 80.777809,52.868549 83.488548,47.851471 
M18.976820,40.614681 
	C17.997822,39.471680 17.018826,38.328674 15.379711,37.453136 
	C16.916042,42.259502 18.452375,47.065865 20.763996,51.984486 
	C22.323038,49.666374 23.882080,47.348259 25.594170,44.802578 
	C26.105003,46.669529 26.371353,48.481464 27.125116,50.060764 
	C27.530821,50.910805 28.708313,51.693985 29.658813,51.876724 
	C30.294594,51.998955 31.623444,51.155319 31.819454,50.498417 
	C33.111656,46.167797 34.180569,41.770557 35.322266,37.395035 
	C34.665508,37.147408 34.008747,36.899784 33.351990,36.652157 
	C32.103512,39.634312 30.855036,42.616463 29.280964,46.376343 
	C28.616079,43.892506 28.359180,42.066635 27.623549,40.459953 
	C27.039888,39.185204 25.869934,38.178886 24.960304,37.053383 
	C24.303116,38.354015 23.645927,39.654648 22.648851,41.583572 
	C22.095524,43.378197 21.542196,45.172821 20.327576,46.614746 
	C20.075155,45.654903 19.822735,44.695065 19.620419,43.247276 
	C19.414034,42.631241 19.207649,42.015205 18.976820,40.614681 
M33.960587,25.125778 
	C33.918598,25.287046 33.911694,25.472185 33.823399,25.601940 
	C33.754257,25.703550 33.561401,25.816723 33.462444,25.788464 
	C29.853943,24.757877 27.361347,19.704748 22.326376,22.491566 
	C26.916706,26.033621 31.183870,29.326309 36.116760,33.132694 
	C40.873291,28.943521 48.565826,26.360455 50.538128,18.258057 
	C50.216515,17.884342 49.894901,17.510628 49.573288,17.136913 
	C46.192570,19.465515 42.811848,21.794119 39.199173,24.282488 
	C39.122726,22.843861 39.358547,21.440081 38.911201,20.305716 
	C38.319462,18.805208 37.192932,17.515602 36.296257,16.135351 
	C35.530956,17.564085 34.531666,18.922453 34.074173,20.443750 
	C33.706249,21.667200 33.994053,23.087843 33.960587,25.125778 
M37.087303,46.365448 
	C37.310505,48.275101 37.533703,50.184757 37.756905,52.094410 
	C38.488369,52.031456 39.219830,51.968502 39.951294,51.905544 
	C39.951294,48.693192 39.951294,45.480839 39.951294,42.268486 
	C41.879345,44.889496 42.717388,47.561886 43.787029,50.138107 
	C44.098198,50.887554 45.091358,51.856033 45.735519,51.829823 
	C46.439934,51.801163 47.377029,50.862534 47.728127,50.097984 
	C48.573540,48.256977 49.135986,46.286026 50.151375,43.406769 
	C50.959885,47.180313 51.500603,49.703995 52.041321,52.227673 
	C52.590839,52.082458 53.140358,51.937244 53.689877,51.792030 
	C53.689877,46.938732 53.689877,42.085438 53.689877,37.201805 
	C46.377384,35.989758 49.160545,43.879311 45.864391,45.556599 
	C42.385853,43.356106 45.082405,35.539482 37.087299,37.465523 
	C37.087299,40.178402 37.087299,42.806065 37.087303,46.365448 
M59.224850,41.603756 
	C58.155926,44.945446 57.086998,48.287132 56.018074,51.628822 
	C56.267376,52.166733 56.516682,52.704643 56.765984,53.242558 
	C60.671875,46.544899 64.878662,49.019199 69.213531,52.157921 
	C68.205582,47.743336 67.209785,44.085117 65.778290,40.606171 
	C65.199356,39.199203 63.669048,38.183704 62.571678,36.990063 
	C61.550980,38.284637 60.530285,39.579212 59.224850,41.603756 
M12.724227,38.870914 
	C12.517750,38.253925 12.346848,37.118511 12.099199,37.101513 
	C10.013541,36.958393 7.913838,37.019951 5.206198,37.019951 
	C5.206198,41.111404 5.081182,44.711967 5.274826,48.295307 
	C5.341515,49.529366 6.202855,50.720474 6.701182,51.931206 
	C7.312761,50.824795 7.990574,49.748219 8.508011,48.599411 
	C8.767179,48.024014 8.733961,47.316921 8.829288,46.693550 
	C10.287075,46.195614 11.661365,45.726196 14.377411,44.798477 
	C11.580449,44.138958 10.235992,43.821938 8.977454,43.525177 
	C8.084115,40.594830 8.417972,38.703785 12.724227,38.870914 
z"/>
<path fill="#F0FCEB" opacity="1.000000" stroke="none" 
	d="
M83.556831,47.430450 
	C80.777809,52.868549 76.360909,52.359886 71.512924,51.640945 
	C71.512924,46.869812 71.512924,42.284122 71.512924,37.401051 
	C75.996040,36.758507 80.241051,35.947746 83.290855,40.834328 
	C83.519547,43.068527 83.572334,45.038982 83.556831,47.430450 
M74.341949,47.061356 
	C74.945198,48.023521 75.487503,49.724663 76.165482,49.780582 
	C77.277603,49.872299 79.241325,49.132324 79.491943,48.323532 
	C80.138870,46.235760 80.688667,43.701302 80.034790,41.764774 
	C79.550781,40.331318 77.115746,39.556633 74.335594,37.660152 
	C74.335594,41.667179 74.335594,43.937237 74.341949,47.061356 
z"/>
<path fill="#22B14C" opacity="1.000000" stroke="none" 
	d="
M33.975746,24.773384 
	C33.994053,23.087843 33.706249,21.667200 34.074173,20.443750 
	C34.531666,18.922453 35.530956,17.564085 36.296257,16.135349 
	C37.192932,17.515602 38.319462,18.805208 38.911201,20.305716 
	C39.358547,21.440081 39.122726,22.843861 39.199173,24.282488 
	C42.811848,21.794119 46.192570,19.465515 49.573288,17.136913 
	C49.894901,17.510628 50.216515,17.884342 50.538128,18.258057 
	C48.565826,26.360455 40.873291,28.943521 36.116760,33.132694 
	C31.183870,29.326309 26.916706,26.033621 22.326376,22.491566 
	C27.361347,19.704748 29.853943,24.757877 33.462444,25.788464 
	C33.561401,25.816723 33.754257,25.703550 33.823399,25.601940 
	C33.911694,25.472185 33.918598,25.287046 33.975746,24.773384 
z"/>
<path fill="#F2FCF1" opacity="1.000000" stroke="none" 
	d="
M37.087303,45.899586 
	C37.087299,42.806065 37.087299,40.178402 37.087299,37.465523 
	C45.082405,35.539482 42.385853,43.356106 45.864391,45.556599 
	C49.160545,43.879311 46.377384,35.989758 53.689877,37.201805 
	C53.689877,42.085438 53.689877,46.938732 53.689877,51.792030 
	C53.140358,51.937244 52.590839,52.082458 52.041321,52.227673 
	C51.500603,49.703995 50.959885,47.180313 50.151375,43.406769 
	C49.135986,46.286026 48.573540,48.256977 47.728127,50.097984 
	C47.377029,50.862534 46.439934,51.801163 45.735519,51.829823 
	C45.091358,51.856033 44.098198,50.887554 43.787029,50.138107 
	C42.717388,47.561886 41.879345,44.889496 39.951294,42.268486 
	C39.951294,45.480839 39.951294,48.693192 39.951294,51.905544 
	C39.219830,51.968502 38.488369,52.031456 37.756905,52.094410 
	C37.533703,50.184757 37.310505,48.275101 37.087303,45.899586 
z"/>
<path fill="#F8FEF3" opacity="1.000000" stroke="none" 
	d="
M22.988737,40.955280 
	C23.645927,39.654648 24.303116,38.354015 24.960304,37.053383 
	C25.869934,38.178886 27.039888,39.185204 27.623549,40.459953 
	C28.359180,42.066635 28.616079,43.892506 29.280964,46.376343 
	C30.855036,42.616463 32.103512,39.634312 33.351990,36.652157 
	C34.008747,36.899784 34.665508,37.147408 35.322266,37.395035 
	C34.180569,41.770557 33.111656,46.167797 31.819454,50.498417 
	C31.623444,51.155319 30.294594,51.998955 29.658813,51.876724 
	C28.708313,51.693985 27.530821,50.910805 27.125116,50.060764 
	C26.371353,48.481464 26.105003,46.669529 25.594170,44.802578 
	C23.882080,47.348259 22.323038,49.666374 20.218500,51.593399 
	C18.461946,46.530098 17.250887,41.857887 16.039829,37.185673 
	C17.018826,38.328674 17.997822,39.471680 18.984428,41.251556 
	C19.184797,42.504025 19.377556,43.119625 19.570314,43.735222 
	C19.822735,44.695065 20.075155,45.654903 20.913525,46.836651 
	C21.995895,45.024132 22.492315,42.989704 22.988737,40.955280 
z"/>
<path fill="#F1FCF1" opacity="1.000000" stroke="none" 
	d="
M59.367218,41.238770 
	C60.530285,39.579212 61.550980,38.284637 62.571678,36.990063 
	C63.669048,38.183704 65.199356,39.199203 65.778290,40.606171 
	C67.209785,44.085117 68.205582,47.743336 69.213531,52.157921 
	C64.878662,49.019199 60.671875,46.544899 56.765984,53.242558 
	C56.516682,52.704643 56.267376,52.166733 56.018074,51.628822 
	C57.086998,48.287132 58.155926,44.945446 59.367218,41.238770 
z"/>
<path fill="#EEFBEC" opacity="1.000000" stroke="none" 
	d="
M12.322461,38.942924 
	C8.417972,38.703785 8.084115,40.594830 8.977454,43.525177 
	C10.235992,43.821938 11.580449,44.138958 14.377411,44.798477 
	C11.661365,45.726196 10.287075,46.195614 8.829288,46.693550 
	C8.733961,47.316921 8.767179,48.024014 8.508011,48.599411 
	C7.990574,49.748219 7.312761,50.824795 6.701182,51.931206 
	C6.202855,50.720474 5.341515,49.529366 5.274826,48.295307 
	C5.081182,44.711967 5.206198,41.111404 5.206198,37.019951 
	C7.913838,37.019951 10.013541,36.958393 12.099199,37.101513 
	C12.346848,37.118511 12.517750,38.253925 12.322461,38.942924 
z"/>
<path fill="#EDFCED" opacity="1.000000" stroke="none" 
	d="
M15.709770,37.319405 
	C17.250887,41.857887 18.461946,46.530098 19.830856,51.537270 
	C18.452375,47.065865 16.916042,42.259502 15.709770,37.319405 
z"/>
<path fill="#EDFCED" opacity="1.000000" stroke="none" 
	d="
M22.818794,41.269424 
	C22.492315,42.989704 21.995895,45.024132 21.244171,47.013000 
	C21.542196,45.172821 22.095524,43.378197 22.818794,41.269424 
z"/>
<path fill="#EDFCED" opacity="1.000000" stroke="none" 
	d="
M19.595367,43.491249 
	C19.377556,43.119625 19.184797,42.504025 18.996651,41.643799 
	C19.207649,42.015205 19.414034,42.631241 19.595367,43.491249 
z"/>
<path fill="#C1E936" opacity="1.000000" stroke="none" 
	d="
M74.338776,46.634323 
	C74.335594,43.937237 74.335594,41.667179 74.335594,37.660152 
	C77.115746,39.556633 79.550781,40.331318 80.034790,41.764774 
	C80.688667,43.701302 80.138870,46.235760 79.491943,48.323532 
	C79.241325,49.132324 77.277603,49.872299 76.165482,49.780582 
	C75.487503,49.724663 74.945198,48.023521 74.338776,46.634323 
z"/>
</svg>